<svg xmlns="http://www.w3.org/2000/svg" xmlns:xlink="http://www.w3.org/1999/xlink" viewBox="0 0 417.89 346.42"><defs><linearGradient id="New_Gradient_Swatch_1" y1="173.21" x2="417.89" y2="173.21" gradientUnits="userSpaceOnUse"><stop offset="0" stop-color="#f15e62"/><stop offset="1" stop-color="#5d2c85"/></linearGradient><linearGradient id="New_Gradient_Swatch_1-2" x1="53.79" y1="144.81" x2="346.73" y2="144.81" xlink:href="#New_Gradient_Swatch_1"/><linearGradient id="New_Gradient_Swatch_1-3" x1="32.93" y1="166.73" x2="356.28" y2="166.73" xlink:href="#New_Gradient_Swatch_1"/><linearGradient id="New_Gradient_Swatch_1-4" x1="76.29" y1="144.81" x2="324.24" y2="144.81" xlink:href="#New_Gradient_Swatch_1"/><linearGradient id="New_Gradient_Swatch_1-5" x1="90.44" y1="138.14" x2="292.42" y2="138.14" xlink:href="#New_Gradient_Swatch_1"/></defs><title>Asset 1</title><g id="Layer_2" data-name="Layer 2"><g id="Layer_1-2" data-name="Layer 1"><path d="M208.94,346.42a77,77,0,0,1-60.19-28.8L17.18,154.38a77.1,77.1,0,0,1,2.3-99.74L44.76,26.07l.31.28-.31-.28A77.35,77.35,0,0,1,102.65,0h212.6a77.35,77.35,0,0,1,57.89,26.08l25.27,28.56a77.1,77.1,0,0,1,2.3,99.74L269.13,317.63A77,77,0,0,1,208.94,346.42ZM102.65.84A76.5,76.5,0,0,0,45.39,26.62L20.11,55.19a76.26,76.26,0,0,0-2.28,98.67L149.41,317.11a76.47,76.47,0,0,0,119.07,0L400.06,153.85a76.27,76.27,0,0,0-2.27-98.66L372.52,26.63A76.51,76.51,0,0,0,315.25.84Z" fill="url(#New_Gradient_Swatch_1)"/><path d="M200.26,272.75h0A53,53,0,0,1,158,251.45L65.84,131a59.35,59.35,0,0,1,1.61-73.74L85.16,36.15a53.15,53.15,0,0,1,40.65-19.29H274.72a53.16,53.16,0,0,1,40.65,19.29l17.7,21.08A59.35,59.35,0,0,1,334.68,131L242.52,251.45A53,53,0,0,1,200.26,272.75ZM125.81,17.7a52.31,52.31,0,0,0-40,19L68.1,57.77a58.51,58.51,0,0,0-1.59,72.7l92.16,120.48a51.74,51.74,0,0,0,83.2,0L334,130.46a58.51,58.51,0,0,0-1.59-72.69l-17.7-21.08a52.31,52.31,0,0,0-40-19Z" fill="url(#New_Gradient_Swatch_1-2)"/><path d="M194.6,325c-18.22,0-35.22-9.6-46.64-26.35L46.21,149.52C27.85,122.59,28.6,84.27,48,58.38l19.55-26.1C78.9,17.11,95.25,8.41,112.4,8.41H276.81c17.15,0,33.5,8.7,44.86,23.87l19.54,26.1c19.39,25.89,20.14,64.22,1.78,91.14L241.24,298.69C229.82,315.44,212.82,325,194.6,325ZM68.21,32.78,48.66,58.88C29.48,84.49,28.73,122.41,46.9,149L148.65,298.22c11.27,16.52,28,26,45.95,26s34.68-9.47,45.95-26L342.3,149c18.16-26.63,17.43-64.55-1.75-90.16L321,32.78c-11.2-15-27.31-23.53-44.19-23.53H112.4c-16.89,0-33,8.57-44.19,23.53Z" fill="url(#New_Gradient_Swatch_1-3)"/><path d="M200.26,257.45c-14,0-27-6.84-35.81-18.77l-78-106C72.39,113.47,73,86.16,87.86,67.72l15-18.56c8.72-10.8,21.27-17,34.44-17h126c13.17,0,25.72,6.2,34.44,17l15,18.55c14.89,18.45,15.46,45.76,1.36,64.93l-78,106C227.3,250.61,214.25,257.45,200.26,257.45Zm-97.1-208,.33.26-15,18.55c-14.66,18.16-15.23,45-1.34,63.92l78,106c8.61,11.71,21.42,18.43,35.13,18.43s26.52-6.72,35.13-18.43l78-106c13.88-18.88,13.32-45.76-1.34-63.92L297,49.69C288.49,39.08,276.17,33,263.25,33h-126c-12.91,0-25.23,6.08-33.79,16.68Z" fill="url(#New_Gradient_Swatch_1-4)"/><path d="M191.43,237.31c-11.42,0-22.06-6-29.22-16.55l-63.46-93.3c-11.49-16.89-11-40.94,1.11-57.18L112.06,54l.33.25-.33-.25c7.11-9.52,17.36-15,28.1-15H242.7c10.75,0,21,5.46,28.11,15L283,70.28c12.13,16.24,12.6,40.29,1.11,57.18l-63.46,93.3C213.49,231.28,202.84,237.31,191.43,237.31ZM140.16,39.8c-10.48,0-20.48,5.34-27.43,14.65L100.53,70.78c-11.93,16-12.38,39.61-1.09,56.22l63.46,93.3c7,10.29,17.39,16.18,28.53,16.18S213,230.58,220,220.29L283.42,127c11.29-16.61,10.83-40.25-1.09-56.21L270.14,54.46c-7-9.32-17-14.66-27.44-14.66Z" fill="url(#New_Gradient_Swatch_1-5)"/></g></g></svg>